<svg width="1214" height="250" viewBox="0 0 1214 250" fill="none" xmlns="http://www.w3.org/2000/svg">
<g filter="url(#filter0_d_7_24)">
<path d="M60 68C60 62.4772 64.4772 58 70 58H1144C1149.52 58 1154 62.4772 1154 68V103V163C1154 168.523 1149.52 173 1144 173H642.839C641.351 173 639.881 173.332 638.537 173.972L611.171 187.013C608.525 188.274 605.459 188.31 602.783 187.113L573.205 173.873C571.92 173.297 570.528 173 569.119 173H70C64.4771 173 60 168.523 60 163V68Z" fill="#3F8CFF"/>
</g>
<defs>
<filter id="filter0_d_7_24" x="0" y="0" width="1214" height="249.985" filterUnits="userSpaceOnUse" color-interpolation-filters="sRGB">
<feFlood flood-opacity="0" result="BackgroundImageFix"/>
<feColorMatrix in="SourceAlpha" type="matrix" values="0 0 0 0 0 0 0 0 0 0 0 0 0 0 0 0 0 0 127 0" result="hardAlpha"/>
<feOffset dy="2"/>
<feGaussianBlur stdDeviation="30"/>
<feColorMatrix type="matrix" values="0 0 0 0 0.245833 0 0 0 0 0.5475 0 0 0 0 1 0 0 0 0.5 0"/>
<feBlend mode="normal" in2="BackgroundImageFix" result="effect1_dropShadow_7_24"/>
<feBlend mode="normal" in="SourceGraphic" in2="effect1_dropShadow_7_24" result="shape"/>
</filter>
</defs>
</svg>
